<?xml version="1.0" encoding="UTF-8"?>
<svg width="700pt" height="700pt" version="1.1" viewBox="0 0 700 700" xmlns="http://www.w3.org/2000/svg" xmlns:xlink="http://www.w3.org/1999/xlink">

 <g fill="#000">
  <path d="m26.035 217.39h146.23v-116.61c0-14.34 11.695-26.035 26.035-26.035h475.66c14.34 0 26.035 11.695 26.035 26.035v245.6c0 14.34-11.781 26.035-26.035 26.035h-146.23v116.61c0 14.34-11.695 26.121-26.035 26.121h-475.66c-14.258 0-26.035-11.781-26.035-26.121v-245.51c0-14.34 11.695-26.121 26.035-26.121zm158.52 0h317.13c14.34 0 26.035 11.781 26.035 26.121v116.61h146.23c7.5117 0 13.742-6.2305 13.742-13.742v-177.48h-503.14v48.488zm503.14-60.781v-21.34h-503.14v21.34zm0-33.633v-22.195c0-7.5117-6.2305-13.742-13.742-13.742h-475.66c-7.5977 0-13.742 6.2305-13.742 13.742v22.195zm-675.41 142.64h503.14v-22.109c0-7.5977-6.2305-13.742-13.742-13.742h-475.66c-7.5117 0-13.742 6.1445-13.742 13.742zm503.14 46.012h-503.14v177.39c0 7.5977 6.2305 13.742 13.742 13.742h475.66c7.5117 0 13.742-6.1445 13.742-13.742zm0-33.719h-503.14v21.426h503.14z"/>
  <path d="m474.72 444.64c0 23.219-25.867 37.73-45.672 25.012-1.6211 1.0234-3.3281 1.8789-5.0352 2.5625-19.293 7.7695-40.719-6.4023-40.719-27.574 0-21.086 21.426-35.172 40.719-27.488 1.707 0.68359 3.4141 1.5352 5.0352 2.5625 19.805-12.805 45.672 1.793 45.672 24.926zm-54.977 15.453c-5.8047-9.3906-5.8047-21.426 0-30.902l-0.51172-0.17188c-11.012-4.3555-23.133 3.6719-23.133 15.621 0 12.035 12.207 20.062 23.133 15.707l0.51172-0.25781zm13.402-27.316c-6.4883 6.4883-6.4883 17.328 0 23.816 10.586 10.586 28.77 2.9883 28.77-11.953 0-14.855-18.184-22.453-28.77-11.867z"/>
  <path d="m60.781 379.76h93.988v36.879h-100.39v-36.879zm81.184 12.805h-74.695v11.27h74.695z"/>
  <path d="m52.586 467.52h161.51v12.293h-161.51z"/>
  <path d="m650.74 320.95c0 23.219-25.953 37.73-45.758 24.926-1.5352 1.0234-3.2422 1.8789-5.0352 2.6445-19.207 7.6836-40.719-6.4023-40.719-27.574s21.512-35.258 40.719-27.574c1.793 0.76953 3.5 1.6211 5.0352 2.6445 19.805-12.805 45.758 1.793 45.758 24.926zm-55.062 15.453c-5.8047-9.3906-5.7188-21.512 0-30.902l-0.42578-0.17188c-11.098-4.3555-23.133 3.6719-23.133 15.621 0 12.035 12.121 20.062 23.047 15.707l0.51172-0.25781zm13.402-27.402c-6.4883 6.5742-6.4883 17.328 0 23.902 10.672 10.586 28.77 2.9023 28.77-11.953 0-14.855-18.098-22.535-28.77-11.953z"/>
  <use y="516.429688" xlink:href="#t"/>
  <use x="0.3125" y="516.429688" xlink:href="#c"/>
  <use x="0.523438" y="516.429688" xlink:href="#a"/>
  <use x="0.8125" y="516.429688" xlink:href="#f"/>
  <use x="1.101562" y="516.429688" xlink:href="#b"/>
  <use x="1.304688" y="516.429688" xlink:href="#a"/>
  <use x="1.59375" y="516.429688" xlink:href="#i"/>
  <use x="2.050781" y="516.429688" xlink:href="#h"/>
  <use x="2.355469" y="516.429688" xlink:href="#g"/>
  <use x="2.78125" y="516.429688" xlink:href="#f"/>
  <use x="3.070312" y="516.429688" xlink:href="#e"/>
  <use x="3.214844" y="516.429688" xlink:href="#e"/>
  <use x="3.363281" y="516.429688" xlink:href="#a"/>
  <use x="3.652344" y="516.429688" xlink:href="#s"/>
  <use y="516.859375" xlink:href="#r"/>
  <use x="0.1875" y="516.859375" xlink:href="#c"/>
  <use x="0.394531" y="516.859375" xlink:href="#d"/>
  <use x="0.6875" y="516.859375" xlink:href="#q"/>
  <use x="1.28125" y="516.859375" xlink:href="#b"/>
  <use x="1.488281" y="516.859375" xlink:href="#p"/>
  <use x="1.789062" y="516.859375" xlink:href="#a"/>
  <use x="2.230469" y="516.859375" xlink:href="#o"/>
  <use x="2.585938" y="516.859375" xlink:href="#d"/>
  <use x="2.878906" y="516.859375" xlink:href="#n"/>
  <use x="3.183594" y="516.859375" xlink:href="#m"/>
  <use x="3.636719" y="516.859375" xlink:href="#l"/>
  <use x="3.949219" y="516.859375" xlink:href="#c"/>
  <use x="4.160156" y="516.859375" xlink:href="#d"/>
  <use x="4.453125" y="516.859375" xlink:href="#k"/>
  <use x="4.597656" y="516.859375" xlink:href="#a"/>
  <use x="4.886719" y="516.859375" xlink:href="#j"/>
  <use x="5.140625" y="516.859375" xlink:href="#b"/>
 </g>
</svg>
