<?xml version="1.0" encoding="UTF-8"?>
<svg width="700pt" height="700pt" version="1.1" viewBox="0 0 700 700" xmlns="http://www.w3.org/2000/svg" xmlns:xlink="http://www.w3.org/1999/xlink">
 <g fill="#000">
  <path d="m350 10c-148.56 0-269.17 120.61-269.17 269.16 0 148.56 120.61 269.17 269.17 269.17s269.17-120.61 269.17-269.17c0-148.55-120.61-269.16-269.17-269.16zm0 23.332c135.68 0 245.84 110.16 245.84 245.83 0 135.68-110.16 245.84-245.84 245.84s-245.84-110.16-245.84-245.84c0-135.67 110.16-245.83 245.84-245.83z" fill-rule="evenodd"/>
  <path d="m218.01 287.41 82.496 82.496c4.5508 4.5547 11.945 4.5547 16.496 0l164.99-164.99c4.5547-4.5547 4.5547-11.945 0-16.5-4.5508-4.5508-11.945-4.5508-16.496 0l-156.74 156.74-74.246-74.246c-4.5547-4.5508-11.945-4.5508-16.5 0-4.5547 4.5547-4.5547 11.945 0 16.5z" fill-rule="evenodd"/>
  <use x="70" y="735" xlink:href="#b"/>
  <use x="220.503906" y="735" xlink:href="#e"/>
  <use x="287.953125" y="735" xlink:href="#a"/>
  <use x="350.015625" y="735" xlink:href="#d"/>
  <use x="450.105469" y="735" xlink:href="#c"/>
  <use x="547.519531" y="735" xlink:href="#a"/>
  <use x="648.945312" y="735" xlink:href="#b"/>
 </g>
</svg>
