
<svg overflow="visible" version="1.1" viewBox="0 0 600 90" xmlns="http://www.w3.org/2000/svg">
<g class="signage-logo">
<g transform="scale(1.2312)" fill="#f55656">
<g class="dB5W4FqzO" transform="translate(-12.337 -1.4345) scale(.57379)" light-content="false" non-strokable="false">
<path d="M78.5 37.747V7.25a4.75 4.75 0 0 0-4.75-4.75h-47.5a4.75 4.75 0 0 0-4.75 4.75v30.497a4.75 4.75 0 0 0 3.567 4.591 7.917 7.917 0 0 1 0 15.33 4.75 4.75 0 0 0-3.567 4.585V92.75a4.75 4.75 0 0 0 4.75 4.75h47.5a4.75 4.75 0 0 0 4.75-4.75V62.253a4.75 4.75 0 0 0-3.567-4.591 7.917 7.917 0 0 1 0-15.33l-.002.003a4.75 4.75 0 0 0 3.569-4.588zM24.667 7.25c0-.874.709-1.583 1.583-1.583h47.5c.874 0 1.583.709 1.583 1.583v6.333H24.667V7.25zm50.666 85.5c0 .874-.709 1.583-1.583 1.583h-47.5a1.583 1.583 0 0 1-1.583-1.583v-6.333h50.666v6.333zm-1.195-53.482A11.083 11.083 0 0 0 65.833 50a11.083 11.083 0 0 0 8.306 10.732 1.583 1.583 0 0 1 1.194 1.521V83.25H24.667V62.253a1.583 1.583 0 0 1 1.195-1.521c5.927-1.53 9.492-7.574 7.963-13.501a11.083 11.083 0 0 0-7.963-7.963 1.583 1.583 0 0 1-1.195-1.521V16.75h50.666v20.997a1.583 1.583 0 0 1-1.195 1.521z"/>
<path d="M50 31c-.874 0-1.583.709-1.583 1.583v3.325A7.917 7.917 0 0 0 50 51.583a4.75 4.75 0 1 1-4.75 4.75 1.583 1.583 0 0 0-3.167 0 7.93 7.93 0 0 0 6.334 7.759v3.325a1.583 1.583 0 1 0 3.166 0v-3.325A7.917 7.917 0 0 0 50 48.417a4.75 4.75 0 1 1 4.75-4.75 1.583 1.583 0 1 0 3.167 0 7.93 7.93 0 0 0-6.334-7.759v-3.325C51.583 31.71 50.874 31 50 31zm19-9.5H31a1.583 1.583 0 0 0 0 3.167h38a1.583 1.583 0 1 0 0-3.167zM29.417 76.917c0 .874.709 1.583 1.583 1.583h38a1.583 1.583 0 0 0 0-3.167H31c-.874 0-1.583.71-1.583 1.584z"/>
</g>
<g class="text" transform="translate(260.97 40.578) scale(1)" light-content="false">
<path d="m-178.43-25.92c0-0.49-0.24-0.73-0.73-0.73h-19.83c-0.48 0-0.72 0.24-0.72 0.73v4.72c0 0.48 0.24 0.72 0.72 0.72h5.94c0.2 0 0.3 0.1 0.3 0.31v19.45c0 0.48 0.24 0.72 0.73 0.72h5.71c0.48 0 0.72-0.24 0.72-0.72v-19.45c0-0.21 0.1-0.31 0.3-0.31h6.13c0.49 0 0.73-0.24 0.73-0.72zm23.98-0.73c-0.48 0-0.73 0.24-0.73 0.73v9.06c0 0.2-0.1 0.3-0.3 0.3h-5.71c-0.2 0-0.3-0.1-0.3-0.3v-9.06c0-0.49-0.25-0.73-0.73-0.73h-5.71c-0.48 0-0.72 0.24-0.72 0.73v25.2c0 0.48 0.24 0.72 0.72 0.72h5.71c0.48 0 0.73-0.24 0.73-0.72v-9.41c0-0.2 0.1-0.3 0.3-0.3h5.71c0.2 0 0.3 0.1 0.3 0.3v9.41c0 0.48 0.25 0.72 0.73 0.72h5.71c0.48 0 0.72-0.24 0.72-0.72v-25.2c0-0.49-0.24-0.73-0.72-0.73zm35.25 6.13c0.48 0 0.72-0.24 0.72-0.72v-4.68c0-0.49-0.24-0.73-0.72-0.73h-17.86c-0.48 0-0.72 0.24-0.72 0.73v25.2c0 0.48 0.24 0.72 0.72 0.72h17.86c0.48 0 0.72-0.24 0.72-0.72v-4.69c0-0.48-0.24-0.72-0.72-0.72h-11.12c-0.2 0-0.3-0.1-0.3-0.3v-3.73c0-0.21 0.1-0.31 0.3-0.31h6.78c0.48 0 0.72-0.24 0.72-0.72v-4.65c0-0.48-0.24-0.72-0.72-0.72h-6.78c-0.2 0-0.3-0.1-0.3-0.3v-3.35c0-0.21 0.1-0.31 0.3-0.31zm25.96 19.8c0 0.48 0.24 0.72 0.72 0.72h18.23c0.49 0 0.73-0.24 0.73-0.72v-4.69c0-0.48-0.24-0.72-0.73-0.72h-11.49c-0.2 0-0.31-0.1-0.31-0.3v-19.49c0-0.49-0.24-0.73-0.72-0.73h-5.71c-0.48 0-0.72 0.24-0.72 0.73zm34.28-0.16c1.58 0.79 3.4 1.18 5.46 1.18 2.05 0 3.87-0.39 5.44-1.18 1.58-0.78 2.79-1.9 3.66-3.35 0.86-1.44 1.29-3.12 1.29-5.02v-16.67c0-0.49-0.24-0.73-0.72-0.73h-5.71c-0.48 0-0.73 0.24-0.73 0.73v16.67c0 1.02-0.29 1.84-0.89 2.47-0.6 0.64-1.38 0.96-2.34 0.96-0.99 0-1.78-0.31-2.38-0.94-0.6-0.62-0.9-1.45-0.9-2.49v-16.67c0-0.49-0.24-0.73-0.72-0.73h-5.71c-0.48 0-0.72 0.24-0.72 0.73v16.67c0 1.9 0.43 3.58 1.29 5.02 0.87 1.45 2.09 2.57 3.68 3.35zm30.94-0.03c1.59 0.81 3.42 1.21 5.5 1.21s3.92-0.38 5.5-1.16c1.59-0.77 2.82-1.86 3.7-3.25 0.87-1.4 1.31-3.01 1.31-4.84v-0.19c0-0.1-0.23-0.16-0.68-0.19l-5.71-0.3c-0.23-0.03-0.42 0.01-0.56 0.09-0.14 0.09-0.21 0.2-0.21 0.33 0 1.01-0.3 1.83-0.91 2.45-0.61 0.63-1.42 0.94-2.44 0.94-1.01 0-1.82-0.31-2.43-0.94-0.61-0.62-0.92-1.44-0.92-2.45v-8.19c0-1.04 0.31-1.87 0.92-2.49s1.42-0.93 2.43-0.93c1.02 0 1.83 0.31 2.44 0.93s0.91 1.45 0.91 2.49v0.23c0 0.13 0.19 0.19 0.57 0.19h0.2l5.71-0.38c0.45-0.05 0.68-0.19 0.68-0.42 0-1.82-0.44-3.43-1.31-4.81-0.88-1.39-2.11-2.46-3.7-3.22-1.58-0.76-3.42-1.14-5.5-1.14s-3.91 0.41-5.5 1.22c-1.58 0.81-2.81 1.95-3.69 3.42-0.87 1.48-1.31 3.18-1.31 5.1v7.69c0 1.96 0.44 3.68 1.31 5.16 0.88 1.49 2.11 2.63 3.69 3.45zm26.14 0.19c0 0.48 0.24 0.72 0.72 0.72h5.71c0.48 0 0.72-0.24 0.72-0.72v-6.28c0-0.11 0.04-0.23 0.12-0.38l1.48-2.25c0.05-0.1 0.12-0.15 0.21-0.15s0.16 0.05 0.21 0.15l5.14 9.14c0.18 0.33 0.46 0.49 0.84 0.49h6.43c0.41 0 0.61-0.15 0.61-0.46 0-0.12-0.04-0.26-0.12-0.42l-8.07-13.74c-0.07-0.12-0.06-0.26 0.04-0.42l7.69-10.73c0.1-0.13 0.15-0.28 0.15-0.46 0-0.28-0.19-0.42-0.57-0.42h-6.47c-0.38 0-0.67 0.16-0.87 0.46l-6.44 9.1c-0.07 0.1-0.16 0.14-0.24 0.11-0.09-0.02-0.14-0.1-0.14-0.23v-8.71c0-0.49-0.24-0.73-0.72-0.73h-5.71c-0.48 0-0.72 0.24-0.72 0.73zm39.13-0.08c0 0.48 0.24 0.72 0.72 0.72h5.67c0.48 0 0.73-0.24 0.73-0.72v-8.18c0-0.11 0.02-0.23 0.07-0.38l7.73-16.45c0.05-0.15 0.08-0.27 0.08-0.34 0-0.33-0.22-0.5-0.65-0.5h-6.24c-0.44 0-0.72 0.19-0.84 0.57l-3.5 8.8c-0.05 0.1-0.12 0.15-0.19 0.15-0.08 0-0.14-0.05-0.19-0.15l-3.51-8.8c-0.12-0.38-0.4-0.57-0.83-0.57h-6.21c-0.43 0-0.65 0.17-0.65 0.5 0 0.07 0.03 0.19 0.08 0.34l7.65 16.45c0.05 0.15 0.08 0.27 0.08 0.38zm40.31 0.08c0 0.48 0.24 0.72 0.72 0.72h9.63c2.06 0 3.88-0.36 5.47-1.07 1.58-0.71 2.81-1.71 3.67-3 0.86-1.3 1.29-2.79 1.29-4.49v-9.52c0-1.7-0.43-3.2-1.29-4.49-0.86-1.3-2.09-2.3-3.67-3.01-1.59-0.71-3.41-1.07-5.47-1.07h-9.63c-0.48 0-0.72 0.24-0.72 0.73zm7.46-5.41c-0.2 0-0.3-0.1-0.3-0.3v-13.78c0-0.21 0.1-0.31 0.3-0.31h3.12c0.92 0 1.65 0.34 2.21 1.01s0.84 1.56 0.84 2.65v7.08c-0.03 1.09-0.32 1.97-0.88 2.64-0.56 0.68-1.27 1.01-2.13 1.01zm37 5.6c0.15 0.35 0.43 0.53 0.84 0.53h6.05c0.41 0 0.61-0.15 0.61-0.46 0-0.15-0.03-0.28-0.08-0.38l-4.64-9.82c-0.08-0.18-0.03-0.3 0.15-0.38 1.42-0.61 2.53-1.53 3.33-2.78 0.8-1.24 1.2-2.69 1.2-4.34 0-1.67-0.36-3.15-1.08-4.43-0.73-1.28-1.74-2.28-3.05-2.99s-2.82-1.07-4.55-1.07h-11.38c-0.48 0-0.72 0.24-0.72 0.73v25.2c0 0.48 0.24 0.72 0.72 0.72h5.71c0.48 0 0.72-0.24 0.72-0.72v-9.22c0-0.2 0.1-0.3 0.31-0.3h1.37c0.2 0 0.33 0.08 0.38 0.23zm-6.17-19.68c0-0.21 0.1-0.31 0.31-0.31h3.46c0.81 0 1.47 0.22 1.98 0.67 0.51 0.44 0.76 1.03 0.76 1.77 0 0.71-0.25 1.29-0.76 1.73s-1.17 0.67-1.98 0.67h-3.46c-0.21 0-0.31-0.1-0.31-0.31zm41.04 19.6c0.1 0.41 0.37 0.61 0.8 0.61h6.16c0.44 0 0.65-0.19 0.65-0.57 0-0.1-0.01-0.19-0.04-0.27l-7.91-25.2c-0.13-0.4-0.4-0.61-0.8-0.61h-7.85c-0.4 0-0.67 0.21-0.79 0.61l-7.92 25.2c-0.08 0.26-0.06 0.46 0.05 0.61 0.12 0.15 0.3 0.23 0.56 0.23h6.16c0.43 0 0.7-0.2 0.8-0.61l0.76-2.74c0.05-0.18 0.17-0.27 0.35-0.27h7.91c0.18 0 0.3 0.09 0.35 0.27zm-7.69-8.75v-0.08l2.44-8.79c0.05-0.13 0.12-0.19 0.2-0.19 0.09 0 0.15 0.06 0.18 0.19l2.43 8.79c0.03 0.1 0.02 0.18-0.04 0.25-0.05 0.06-0.12 0.09-0.22 0.09h-4.72c-0.18 0-0.27-0.09-0.27-0.26zm25.43 8.75c0.12 0.41 0.4 0.61 0.83 0.61h5.41c0.43 0 0.69-0.22 0.76-0.65l2.32-12.6c0.03-0.15 0.08-0.22 0.16-0.21 0.07 0.02 0.13 0.09 0.19 0.21l2.62 12.6c0.08 0.43 0.34 0.65 0.8 0.65h5.83c0.43 0 0.69-0.2 0.8-0.61l6.66-25.24c0.05-0.25 0.02-0.45-0.08-0.59s-0.28-0.21-0.53-0.21h-6.17c-0.43 0-0.7 0.22-0.8 0.65l-2.82 11.99c-0.02 0.13-0.08 0.19-0.17 0.19s-0.16-0.06-0.21-0.19l-3.04-12.03c-0.1-0.4-0.37-0.61-0.8-0.61h-4.45c-0.41 0-0.68 0.22-0.8 0.65l-2.9 11.99c-0.02 0.13-0.08 0.19-0.17 0.19s-0.16-0.06-0.21-0.19l-3.12-12.03c-0.1-0.4-0.37-0.61-0.8-0.61h-6.16c-0.44 0-0.65 0.18-0.65 0.54 0 0.1 0.01 0.19 0.04 0.26z"/>
</g>
</g>
</g>
</svg>