<?xml version="1.0" encoding="UTF-8"?>
<svg width="700pt" height="700pt" version="1.1" viewBox="0 0 700 700" xmlns="http://www.w3.org/2000/svg" xmlns:xlink="http://www.w3.org/1999/xlink">
 <g fill="#000">
  <path d="m122.5 245c4.832 0 8.75-3.918 8.75-8.75v-43.75h43.75c4.832 0 8.75-3.918 8.75-8.75s-3.918-8.75-8.75-8.75h-43.75c-4.6406 0.003906-9.0898 1.8516-12.371 5.1289-3.2773 3.2812-5.125 7.7305-5.1289 12.371v43.75c0 4.832 3.918 8.75 8.75 8.75z"/>
  <path d="m113.75 367.5c0.003906 4.6406 1.8516 9.0898 5.1289 12.371 3.2812 3.2773 7.7305 5.125 12.371 5.1289h43.75c4.832 0 8.75-3.918 8.75-8.75s-3.918-8.75-8.75-8.75h-43.75v-43.75c0-4.832-3.918-8.75-8.75-8.75s-8.75 3.918-8.75 8.75z"/>
  <path d="m210 262.5v-52.5c0-4.832-3.918-8.75-8.75-8.75h-52.5c-4.832 0-8.75 3.918-8.75 8.75v52.5c0 4.832 3.918 8.75 8.75 8.75h52.5c4.832 0 8.75-3.918 8.75-8.75zm-17.5-8.75h-35v-35h35z"/>
  <path d="m166.25 227.5h17.5v17.5h-17.5z"/>
  <path d="m227.5 210v52.5c0 4.832 3.918 8.75 8.75 8.75h52.5c4.832 0 8.75-3.918 8.75-8.75v-52.5c0-4.832-3.918-8.75-8.75-8.75h-52.5c-4.832 0-8.75 3.918-8.75 8.75zm17.5 8.75h35v35h-35z"/>
  <path d="m253.75 227.5h17.5v17.5h-17.5z"/>
  <path d="m227.5 350c0 4.832 3.918 8.75 8.75 8.75h52.5c4.832 0 8.75-3.918 8.75-8.75v-52.5c0-4.832-3.918-8.75-8.75-8.75h-52.5c-4.832 0-8.75 3.918-8.75 8.75zm17.5-43.75h35v35h-35z"/>
  <path d="m253.75 315h17.5v17.5h-17.5z"/>
  <path d="m183.75 297.5h17.5v17.5h-17.5z"/>
  <path d="m166.25 315h17.5v17.5h-17.5z"/>
  <path d="m183.75 332.5h17.5v17.5h-17.5z"/>
  <path d="m148.75 332.5h17.5v17.5h-17.5z"/>
  <path d="m148.75 297.5h17.5v17.5h-17.5z"/>
  <path d="m87.5 476.88h210v-17.5h-210v-358.75h210v-17.5h-210c-4.6406 0.003906-9.0898 1.8516-12.371 5.1289-3.2773 3.2812-5.125 7.7305-5.1289 12.371v358.75c0.003906 4.6406 1.8516 9.0898 5.1289 12.371 3.2812 3.2773 7.7305 5.125 12.371 5.1289z"/>
  <path d="m297.5 192.5v-17.5h-35c-4.832 0-8.75 3.918-8.75 8.75s3.918 8.75 8.75 8.75z"/>
  <path d="m262.5 385h35v-17.5h-35c-4.832 0-8.75 3.918-8.75 8.75s3.918 8.75 8.75 8.75z"/>
  <path d="m341.45 0c-14.625 0-25.492 11.91-26.438 28.973-0.007813 0.16016-0.011719 0.32031-0.011719 0.48047v507.76c0 0.33594 0.019531 0.67188 0.058594 1.0078 1.2617 6.1406 4.6016 11.656 9.457 15.625 4.8516 3.9648 10.922 6.1367 17.191 6.1523h253.55c6.9336 0.015625 13.582-2.7773 18.426-7.7383 4.8711-4.9297 7.5898-11.59 7.5625-18.52l-0.10156-288.76 0.10156 0.011719c4.832 0 8.75-3.918 8.75-8.75v-35c0-4.832-3.918-8.75-8.75-8.75-0.039062 0-0.078125 0.011718-0.11719 0.011718l-0.007812-26.27c0.042969 0 0.082031 0.011719 0.125 0.011719 4.832 0 8.75-3.918 8.75-8.75v-35c0-4.832-3.918-8.75-8.75-8.75-0.050781 0-0.09375 0.015625-0.14453 0.015625v-4.4062c0.050781 0 0.097656 0.015625 0.14844 0.015625h-0.003906c4.832 0 8.75-3.918 8.75-8.75v-35c0-4.832-3.918-8.75-8.75-8.75-0.054688 0-0.10938 0.015625-0.16406 0.015625l-0.011719-30.277c0-14.988-15.668-26.613-29.141-26.613zm262.12 26.617 0.17578 507.13c0.011719 2.332-0.89844 4.5703-2.5273 6.2344-1.5664 1.6055-3.7188 2.5156-5.9609 2.5156h-253.55c-3.9531-0.13281-7.5039-2.457-9.207-6.0273v-506.76c0.47266-7.4297 3.9727-12.215 8.9492-12.215h250.48c5.1172 0 11.645 5.1094 11.645 9.1172z"/>
  <path d="m481.98 48.125c0 7.25-5.8789 13.125-13.125 13.125-7.25 0-13.125-5.875-13.125-13.125s5.875-13.125 13.125-13.125c7.2461 0 13.125 5.875 13.125 13.125"/>
  <path d="m499.48 507.5h-61.25c-4.832 0-8.75 3.918-8.75 8.75s3.918 8.75 8.75 8.75h61.25c4.832 0 8.75-3.918 8.75-8.75s-3.918-8.75-8.75-8.75z"/>
  <path d="m468.12 175c-27.848 0-54.555 11.062-74.246 30.754s-30.754 46.398-30.754 74.246 11.062 54.555 30.754 74.246 46.398 30.754 74.246 30.754 54.555-11.062 74.246-30.754 30.754-46.398 30.754-74.246c-0.03125-27.84-11.105-54.527-30.789-74.211-19.684-19.684-46.371-30.758-74.211-30.789zm0 192.5c-23.207 0-45.461-9.2188-61.871-25.629s-25.629-38.664-25.629-61.871 9.2188-45.461 25.629-61.871 38.664-25.629 61.871-25.629 45.461 9.2188 61.871 25.629 25.629 38.664 25.629 61.871c-0.027344 23.199-9.2539 45.441-25.656 61.844s-38.645 25.629-61.844 25.656z"/>
  <path d="m505.69 243.19-55.062 55.066-20.062-20.062v-0.003906c-3.418-3.4062-8.9492-3.3984-12.363 0.011719-3.4102 3.4141-3.418 8.9453-0.011719 12.363l26.25 26.25c1.6406 1.6406 3.8672 2.5625 6.1875 2.5625s4.5469-0.92188 6.1875-2.5625l61.25-61.25c3.3984-3.4219 3.3945-8.9453-0.015625-12.359-3.4141-3.4102-8.9375-3.4141-12.359-0.015625z"/>
  <use x="70" y="625.625" xlink:href="#h"/>
  <use x="86.054688" y="625.625" xlink:href="#b"/>
  <use x="96.839844" y="625.625" xlink:href="#a"/>
  <use x="111.679687" y="625.625" xlink:href="#d"/>
  <use x="126.4375" y="625.625" xlink:href="#c"/>
  <use x="136.894531" y="625.625" xlink:href="#a"/>
  <use x="151.730469" y="625.625" xlink:href="#k"/>
  <use x="175.007812" y="625.625" xlink:href="#j"/>
  <use x="190.664062" y="625.625" xlink:href="#i"/>
  <use x="212.539062" y="625.625" xlink:href="#h"/>
  <use x="228.59375" y="625.625" xlink:href="#b"/>
  <use x="239.382812" y="625.625" xlink:href="#a"/>
  <use x="254.21875" y="625.625" xlink:href="#d"/>
  <use x="268.980469" y="625.625" xlink:href="#c"/>
  <use x="279.4375" y="625.625" xlink:href="#f"/>
  <use x="286.933594" y="625.625" xlink:href="#u"/>
  <use x="301.195312" y="625.625" xlink:href="#a"/>
  <use x="323.644531" y="625.625" xlink:href="#t"/>
  <use x="345.414062" y="625.625" xlink:href="#d"/>
  <use x="360.175781" y="625.625" xlink:href="#g"/>
  <use x="375.746094" y="625.625" xlink:href="#f"/>
  <use x="383.246094" y="625.625" xlink:href="#b"/>
  <use x="394.035156" y="625.625" xlink:href="#d"/>
  <use x="70" y="647.5" xlink:href="#s"/>
  <use x="79.515625" y="647.5" xlink:href="#b"/>
  <use x="90.304688" y="647.5" xlink:href="#e"/>
  <use x="105.332031" y="647.5" xlink:href="#r"/>
  <use x="135.742188" y="647.5" xlink:href="#c"/>
  <use x="146.199219" y="647.5" xlink:href="#g"/>
  <use x="161.773438" y="647.5" xlink:href="#a"/>
  <use x="184.222656" y="647.5" xlink:href="#q"/>
  <use x="202.53125" y="647.5" xlink:href="#e"/>
  <use x="217.558594" y="647.5" xlink:href="#p"/>
  <use x="233.132812" y="647.5" xlink:href="#o"/>
  <use x="256.320312" y="647.5" xlink:href="#n"/>
  <use x="272.355469" y="647.5" xlink:href="#b"/>
  <use x="283.140625" y="647.5" xlink:href="#e"/>
  <use x="298.171875" y="647.5" xlink:href="#m"/>
  <use x="305.667969" y="647.5" xlink:href="#a"/>
  <use x="320.503906" y="647.5" xlink:href="#l"/>
  <use x="333.472656" y="647.5" xlink:href="#c"/>
 </g>
</svg>
