<!-- <svg xmlns="http://www.w3.org/2000/svg" viewBox="0 0 330 330" class="svg-logo" width="500" height="500" style="height: auto;"> -->
<!-- <rect rx="10" ry="10" width="100%" height="100%" fill="rgba(219, 69, 64, 1)">
</rect> -->
<!-- <circle cx="125" cy="125" r="125" width="100%" height="100%" fill="rgba(219, 69, 64, 1)" /> -->
<!-- <g data-element="wrapper" fill="rgba(219, 69, 64, 1)">
<g>
<g data-element="icon" transform="scale(0.38) translate(180,100)">
<path id="color_x5F_1" fill="rgba(242, 159, 5, 1)" d="M514.056,379.423C514.056,501.05,415.106,600,293.479,600    c-89.83,0-169.942-53.686-204.087-136.768c-9.608-23.375,1.552-50.111,24.928-59.718c23.38-9.612,50.115,1.552,59.718,24.927    c19.987,48.624,66.869,80.039,119.441,80.039c16.325,0,31.936-3.078,46.326-8.633l70.46,25.633l-10.89-71.155l-1.892,1.394    c15.732-21.388,25.053-47.77,25.053-76.297c0-71.163-57.895-129.057-129.057-129.057c-43.733,0-84.154,21.893-108.127,58.561    c-13.829,21.149-42.181,27.088-63.342,13.26c-21.153-13.833-27.089-42.189-13.26-63.342c33.673-51.498,86.368-85.906,145.593-96.509    c-16.609-23.75-45.495-64.261-73.726-100.034c-31.274-39.63,41.327-90.472,78.167-43.367    c26.249,33.564,91.876,124.741,113.115,154.329c1.685,0.643,3.361,1.306,5.026,1.989c-3.191-13.85-10.438-45.916-18.627-86.206    c-13.491-66.376,66.488-75.891,83.683-22.617c9.683,29.998,34.958,147.494,49.276,215.408    C505.84,311.276,514.056,344.406,514.056,379.423z">
</path>
</g>
</g>
</g> -->
<!-- <g class="dB5W4FqzO" transform="translate(-12.337 -1.4345) scale(.57379)" light-content="false" non-strokable="false">
<path d="M78.5 37.747V7.25a4.75 4.75 0 0 0-4.75-4.75h-47.5a4.75 4.75 0 0 0-4.75 4.75v30.497a4.75 4.75 0 0 0 3.567 4.591 7.917 7.917 0 0 1 0 15.33 4.75 4.75 0 0 0-3.567 4.585V92.75a4.75 4.75 0 0 0 4.75 4.75h47.5a4.75 4.75 0 0 0 4.75-4.75V62.253a4.75 4.75 0 0 0-3.567-4.591 7.917 7.917 0 0 1 0-15.33l-.002.003a4.75 4.75 0 0 0 3.569-4.588zM24.667 7.25c0-.874.709-1.583 1.583-1.583h47.5c.874 0 1.583.709 1.583 1.583v6.333H24.667V7.25zm50.666 85.5c0 .874-.709 1.583-1.583 1.583h-47.5a1.583 1.583 0 0 1-1.583-1.583v-6.333h50.666v6.333zm-1.195-53.482A11.083 11.083 0 0 0 65.833 50a11.083 11.083 0 0 0 8.306 10.732 1.583 1.583 0 0 1 1.194 1.521V83.25H24.667V62.253a1.583 1.583 0 0 1 1.195-1.521c5.927-1.53 9.492-7.574 7.963-13.501a11.083 11.083 0 0 0-7.963-7.963 1.583 1.583 0 0 1-1.195-1.521V16.75h50.666v20.997a1.583 1.583 0 0 1-1.195 1.521z"/>
<path d="M50 31c-.874 0-1.583.709-1.583 1.583v3.325A7.917 7.917 0 0 0 50 51.583a4.75 4.75 0 1 1-4.75 4.75 1.583 1.583 0 0 0-3.167 0 7.93 7.93 0 0 0 6.334 7.759v3.325a1.583 1.583 0 1 0 3.166 0v-3.325A7.917 7.917 0 0 0 50 48.417a4.75 4.75 0 1 1 4.75-4.75 1.583 1.583 0 1 0 3.167 0 7.93 7.93 0 0 0-6.334-7.759v-3.325C51.583 31.71 50.874 31 50 31zm19-9.5H31a1.583 1.583 0 0 0 0 3.167h38a1.583 1.583 0 1 0 0-3.167zM29.417 76.917c0 .874.709 1.583 1.583 1.583h38a1.583 1.583 0 0 0 0-3.167H31c-.874 0-1.583.71-1.583 1.584z"/>
</g>
</svg> -->

<svg overflow="visible" version="1.1" viewBox="0 0 100 100" xmlns="http://www.w3.org/2000/svg">
  <g class="signage-logo">
    <g fill="#f55656">
      <g fill="#f55656" class="dB5W4FqzO" light-content="false" non-strokable="false">
        <path d="M78.5 37.747V7.25a4.75 4.75 0 0 0-4.75-4.75h-47.5a4.75 4.75 0 0 0-4.75 4.75v30.497a4.75 4.75 0 0 0 3.567 4.591 7.917 7.917 0 0 1 0 15.33 4.75 4.75 0 0 0-3.567 4.585V92.75a4.75 4.75 0 0 0 4.75 4.75h47.5a4.75 4.75 0 0 0 4.75-4.75V62.253a4.75 4.75 0 0 0-3.567-4.591 7.917 7.917 0 0 1 0-15.33l-.002.003a4.75 4.75 0 0 0 3.569-4.588zM24.667 7.25c0-.874.709-1.583 1.583-1.583h47.5c.874 0 1.583.709 1.583 1.583v6.333H24.667V7.25zm50.666 85.5c0 .874-.709 1.583-1.583 1.583h-47.5a1.583 1.583 0 0 1-1.583-1.583v-6.333h50.666v6.333zm-1.195-53.482A11.083 11.083 0 0 0 65.833 50a11.083 11.083 0 0 0 8.306 10.732 1.583 1.583 0 0 1 1.194 1.521V83.25H24.667V62.253a1.583 1.583 0 0 1 1.195-1.521c5.927-1.53 9.492-7.574 7.963-13.501a11.083 11.083 0 0 0-7.963-7.963 1.583 1.583 0 0 1-1.195-1.521V16.75h50.666v20.997a1.583 1.583 0 0 1-1.195 1.521z"/>
        <path d="M50 31c-.874 0-1.583.709-1.583 1.583v3.325A7.917 7.917 0 0 0 50 51.583a4.75 4.75 0 1 1-4.75 4.75 1.583 1.583 0 0 0-3.167 0 7.93 7.93 0 0 0 6.334 7.759v3.325a1.583 1.583 0 1 0 3.166 0v-3.325A7.917 7.917 0 0 0 50 48.417a4.75 4.75 0 1 1 4.75-4.75 1.583 1.583 0 1 0 3.167 0 7.93 7.93 0 0 0-6.334-7.759v-3.325C51.583 31.71 50.874 31 50 31zm19-9.5H31a1.583 1.583 0 0 0 0 3.167h38a1.583 1.583 0 1 0 0-3.167zM29.417 76.917c0 .874.709 1.583 1.583 1.583h38a1.583 1.583 0 0 0 0-3.167H31c-.874 0-1.583.71-1.583 1.584z"/>
      </g>
    </g>
  </g>
</svg>