<svg xmlns="http://www.w3.org/2000/svg" viewBox="0 0 630 430" class="svg-logo" width="315" height="215" style="height: auto;"><rect rx="10" ry="10" width="100%" height="100%" fill="rgba(219, 69, 64, 1)"></rect><g data-element="wrapper" transform="translate(-141.7500000000032 -89.50001106262422) scale(1.4500000000000102)"><g><g data-element="icon" transform="scale(0.1416665081449799) translate(1923.5319107449434 870.3545774931307)"><path id="color_x5F_1" fill="rgba(242, 159, 5, 1)" d="M514.056,379.423C514.056,501.05,415.106,600,293.479,600    c-89.83,0-169.942-53.686-204.087-136.768c-9.608-23.375,1.552-50.111,24.928-59.718c23.38-9.612,50.115,1.552,59.718,24.927    c19.987,48.624,66.869,80.039,119.441,80.039c16.325,0,31.936-3.078,46.326-8.633l70.46,25.633l-10.89-71.155l-1.892,1.394    c15.732-21.388,25.053-47.77,25.053-76.297c0-71.163-57.895-129.057-129.057-129.057c-43.733,0-84.154,21.893-108.127,58.561    c-13.829,21.149-42.181,27.088-63.342,13.26c-21.153-13.833-27.089-42.189-13.26-63.342c33.673-51.498,86.368-85.906,145.593-96.509    c-16.609-23.75-45.495-64.261-73.726-100.034c-31.274-39.63,41.327-90.472,78.167-43.367    c26.249,33.564,91.876,124.741,113.115,154.329c1.685,0.643,3.361,1.306,5.026,1.989c-3.191-13.85-10.438-45.916-18.627-86.206    c-13.491-66.376,66.488-75.891,83.683-22.617c9.683,29.998,34.958,147.494,49.276,215.408    C505.84,311.276,514.056,344.406,514.056,379.423z"></path></g><text transform="translate(171 259.2999954223633)" fill="rgba(242, 159, 5, 1)" font-family="JP Kosugi" font-size="64" data-element="company-name" dx="0 0 0 0 0 0 0 0 0">e-Lottery</text><text transform="translate(267.88749849796295 289.49999618530273)" fill="rgba(242, 159, 5, 1)" font-family="Supermercado One" font-size="28.8" data-element="slogan" dx="0 0 0 0 0 0 0">Win Big</text></g></g></svg>